<mxfile host="drawio-plugin" modified="2021-12-01T19:59:41.404Z" agent="5.0 (Macintosh; Intel Mac OS X 11_6_1) AppleWebKit/537.36 (KHTML, like Gecko) Chrome/89.0.4389.114 Safari/537.36" etag="nqTijcY_DgLDLpsoyb0r" version="14.7.4" type="embed"><diagram id="4-e58gbuPhO6_fKOoZB5" name="Ref Architecture"><mxGraphModel dx="1088" dy="942" grid="1" gridSize="10" guides="1" tooltips="1" connect="1" arrows="1" fold="1" page="1" pageScale="1" pageWidth="850" pageHeight="1100" math="0" shadow="0"><root><mxCell id="0"/><mxCell id="1" parent="0"/><mxCell id="78Erv3dyEURbthFnPAco-1" value="" style="rounded=0;whiteSpace=wrap;html=1;" parent="1" vertex="1"><mxGeometry x="390" y="240" width="230" height="115" as="geometry"/></mxCell><mxCell id="78Erv3dyEURbthFnPAco-2" value="UI" style="text;html=1;strokeColor=none;fillColor=none;align=center;verticalAlign=middle;whiteSpace=wrap;rounded=0;" parent="1" vertex="1"><mxGeometry x="570" y="240" width="60" height="30" as="geometry"/></mxCell><mxCell id="QhRMwRrf64sF-K7vbuwG-1" value="" style="rounded=0;whiteSpace=wrap;html=1;sketch=0;" parent="1" vertex="1"><mxGeometry x="210" y="160" width="1070" height="830" as="geometry"/></mxCell><mxCell id="QhRMwRrf64sF-K7vbuwG-2" value="" style="rounded=0;whiteSpace=wrap;html=1;" parent="1" vertex="1"><mxGeometry x="414" y="180" width="840" height="490" as="geometry"/></mxCell><mxCell id="QhRMwRrf64sF-K7vbuwG-3" value="" style="rounded=0;whiteSpace=wrap;html=1;" parent="1" vertex="1"><mxGeometry x="459" y="750" width="250" height="220" as="geometry"/></mxCell><mxCell id="QhRMwRrf64sF-K7vbuwG-4" value="" style="rounded=0;whiteSpace=wrap;html=1;" parent="1" vertex="1"><mxGeometry x="684" y="220" width="315.45" height="440" as="geometry"/></mxCell><mxCell id="QhRMwRrf64sF-K7vbuwG-5" value="lib_feature_2" style="text;html=1;strokeColor=none;fillColor=none;align=center;verticalAlign=middle;whiteSpace=wrap;rounded=0;" parent="1" vertex="1"><mxGeometry x="934" y="230" width="40" height="20" as="geometry"/></mxCell><mxCell id="QhRMwRrf64sF-K7vbuwG-6" value="Bloc" style="rounded=1;whiteSpace=wrap;html=1;" parent="1" vertex="1"><mxGeometry x="704" y="336" width="80" height="40" as="geometry"/></mxCell><mxCell id="QhRMwRrf64sF-K7vbuwG-7" value="Widgets" style="rounded=1;whiteSpace=wrap;html=1;" parent="1" vertex="1"><mxGeometry x="904" y="280" width="80" height="40" as="geometry"/></mxCell><mxCell id="QhRMwRrf64sF-K7vbuwG-8" value="" style="rounded=0;whiteSpace=wrap;html=1;" parent="1" vertex="1"><mxGeometry x="694" y="469" width="240" height="160" as="geometry"/></mxCell><mxCell id="QhRMwRrf64sF-K7vbuwG-9" value="Domain" style="text;html=1;strokeColor=none;fillColor=none;align=center;verticalAlign=middle;whiteSpace=wrap;rounded=0;" parent="1" vertex="1"><mxGeometry x="884" y="479" width="40" height="20" as="geometry"/></mxCell><mxCell id="QhRMwRrf64sF-K7vbuwG-10" value="Component" style="rounded=1;whiteSpace=wrap;html=1;" parent="1" vertex="1"><mxGeometry x="704" y="609" width="80" height="40" as="geometry"/></mxCell><mxCell id="QhRMwRrf64sF-K7vbuwG-11" value="&lt;h1&gt;Components&lt;/h1&gt;&lt;div&gt;- Blocs&lt;/div&gt;&lt;div&gt;- Handlers&lt;/div&gt;&lt;div&gt;- Wrappers&lt;br&gt;&lt;/div&gt;&lt;div&gt;- Authenticator&lt;/div&gt;&lt;div&gt;- Singleton&lt;/div&gt;" style="text;html=1;strokeColor=none;fillColor=none;spacing=5;spacingTop=-20;whiteSpace=wrap;overflow=hidden;rounded=0;" parent="1" vertex="1"><mxGeometry x="1014" y="369" width="160" height="120" as="geometry"/></mxCell><mxCell id="QhRMwRrf64sF-K7vbuwG-12" value="" style="endArrow=classic;startArrow=none;html=1;exitX=0.25;exitY=0;exitDx=0;exitDy=0;entryX=0;entryY=0.25;entryDx=0;entryDy=0;rounded=0;startFill=0;" parent="1" source="QhRMwRrf64sF-K7vbuwG-6" target="QhRMwRrf64sF-K7vbuwG-7" edge="1"><mxGeometry width="50" height="50" relative="1" as="geometry"><mxPoint x="744" y="480" as="sourcePoint"/><mxPoint x="794" y="430" as="targetPoint"/><Array as="points"><mxPoint x="724" y="290"/></Array></mxGeometry></mxCell><mxCell id="QhRMwRrf64sF-K7vbuwG-13" value="" style="endArrow=classic;html=1;entryX=0.625;entryY=0;entryDx=0;entryDy=0;entryPerimeter=0;exitX=0;exitY=0.75;exitDx=0;exitDy=0;rounded=0;" parent="1" source="QhRMwRrf64sF-K7vbuwG-7" target="QhRMwRrf64sF-K7vbuwG-6" edge="1"><mxGeometry width="50" height="50" relative="1" as="geometry"><mxPoint x="744" y="480" as="sourcePoint"/><mxPoint x="794" y="430" as="targetPoint"/><Array as="points"><mxPoint x="754" y="310"/></Array></mxGeometry></mxCell><mxCell id="QhRMwRrf64sF-K7vbuwG-14" value="UI Events" style="text;html=1;strokeColor=none;fillColor=none;align=center;verticalAlign=middle;whiteSpace=wrap;rounded=0;" parent="1" vertex="1"><mxGeometry x="794" y="310" width="60" height="20" as="geometry"/></mxCell><mxCell id="QhRMwRrf64sF-K7vbuwG-15" value="Streamed data" style="text;html=1;strokeColor=none;fillColor=none;align=center;verticalAlign=middle;whiteSpace=wrap;rounded=0;" parent="1" vertex="1"><mxGeometry x="764" y="270" width="90" height="20" as="geometry"/></mxCell><mxCell id="QhRMwRrf64sF-K7vbuwG-16" value="Model" style="text;html=1;strokeColor=none;fillColor=none;align=center;verticalAlign=middle;whiteSpace=wrap;rounded=0;" parent="1" vertex="1"><mxGeometry x="714" y="440" width="60" height="20" as="geometry"/></mxCell><mxCell id="QhRMwRrf64sF-K7vbuwG-17" value="" style="endArrow=classic;html=1;entryX=0.5;entryY=1;entryDx=0;entryDy=0;" parent="1" target="QhRMwRrf64sF-K7vbuwG-6" edge="1"><mxGeometry width="50" height="50" relative="1" as="geometry"><mxPoint x="744" y="440" as="sourcePoint"/><mxPoint x="804" y="410" as="targetPoint"/></mxGeometry></mxCell><mxCell id="QhRMwRrf64sF-K7vbuwG-18" value="" style="endArrow=classic;html=1;entryX=0.5;entryY=0;entryDx=0;entryDy=0;" parent="1" target="QhRMwRrf64sF-K7vbuwG-10" edge="1"><mxGeometry width="50" height="50" relative="1" as="geometry"><mxPoint x="744" y="460" as="sourcePoint"/><mxPoint x="754" y="379" as="targetPoint"/></mxGeometry></mxCell><mxCell id="QhRMwRrf64sF-K7vbuwG-19" value="Remote Sources" style="rounded=1;whiteSpace=wrap;html=1;" parent="1" vertex="1"><mxGeometry x="804" y="519" width="120" height="40" as="geometry"/></mxCell><mxCell id="QhRMwRrf64sF-K7vbuwG-20" value="Local Sources" style="rounded=1;whiteSpace=wrap;html=1;" parent="1" vertex="1"><mxGeometry x="804" y="573.5" width="120" height="40" as="geometry"/></mxCell><mxCell id="QhRMwRrf64sF-K7vbuwG-21" value="&lt;h1&gt;Remote Sources&lt;/h1&gt;&lt;div&gt;- ApiClientBloc&lt;/div&gt;&lt;div&gt;- FirestoreBloc&lt;/div&gt;" style="text;html=1;strokeColor=none;fillColor=none;spacing=5;spacingTop=-20;whiteSpace=wrap;overflow=hidden;rounded=0;" parent="1" vertex="1"><mxGeometry x="1014" y="489" width="200" height="100" as="geometry"/></mxCell><mxCell id="QhRMwRrf64sF-K7vbuwG-22" value="&lt;h1&gt;Local Sources&lt;/h1&gt;&lt;div&gt;- SecureStorage&lt;/div&gt;&lt;div&gt;- SembastBloc&lt;/div&gt;" style="text;html=1;strokeColor=none;fillColor=none;spacing=5;spacingTop=-20;whiteSpace=wrap;overflow=hidden;rounded=0;" parent="1" vertex="1"><mxGeometry x="1014" y="579" width="200" height="100" as="geometry"/></mxCell><mxCell id="QhRMwRrf64sF-K7vbuwG-23" value="Infrastructure" style="text;html=1;strokeColor=none;fillColor=none;align=center;verticalAlign=middle;whiteSpace=wrap;rounded=0;" parent="1" vertex="1"><mxGeometry x="649" y="760" width="40" height="20" as="geometry"/></mxCell><mxCell id="QhRMwRrf64sF-K7vbuwG-24" value="&lt;h1&gt;3rd party Plugins&lt;/h1&gt;&lt;div&gt;- App Settings&lt;/div&gt;&lt;div&gt;- Battery Plus&lt;/div&gt;&lt;div&gt;- Device Info&lt;/div&gt;&lt;div&gt;- Firebase&lt;br&gt;&lt;/div&gt;&lt;div&gt;- Geolocator&lt;/div&gt;&lt;div&gt;- Maps Launcher&lt;/div&gt;&lt;div&gt;- New Relic&lt;/div&gt;&lt;div&gt;- Package Info&lt;/div&gt;&lt;div&gt;- Permission Handler&lt;/div&gt;&lt;div&gt;- Share&lt;/div&gt;&lt;div&gt;&lt;br&gt;&lt;/div&gt;" style="text;html=1;strokeColor=none;fillColor=none;spacing=5;spacingTop=-20;whiteSpace=wrap;overflow=hidden;rounded=0;" parent="1" vertex="1"><mxGeometry x="719" y="765" width="210" height="210" as="geometry"/></mxCell><mxCell id="QhRMwRrf64sF-K7vbuwG-25" value="libs APIs&lt;br&gt;Components" style="rounded=1;whiteSpace=wrap;html=1;" parent="1" vertex="1"><mxGeometry x="479" y="740" width="80" height="41" as="geometry"/></mxCell><mxCell id="QhRMwRrf64sF-K7vbuwG-26" value="App/sharedLib" style="text;html=1;strokeColor=none;align=center;verticalAlign=middle;whiteSpace=wrap;rounded=0;" parent="1" vertex="1"><mxGeometry x="1190" y="190" width="40" height="20" as="geometry"/></mxCell><mxCell id="QhRMwRrf64sF-K7vbuwG-27" value="" style="rounded=0;whiteSpace=wrap;html=1;" parent="1" vertex="1"><mxGeometry x="443.55" y="220" width="85.45" height="140" as="geometry"/></mxCell><mxCell id="QhRMwRrf64sF-K7vbuwG-28" value="lib_feature_1" style="text;html=1;strokeColor=none;fillColor=none;align=center;verticalAlign=middle;whiteSpace=wrap;rounded=0;" parent="1" vertex="1"><mxGeometry x="459" y="230" width="60" height="20" as="geometry"/></mxCell><mxCell id="QhRMwRrf64sF-K7vbuwG-29" value="Bloc" style="rounded=1;whiteSpace=wrap;html=1;" parent="1" vertex="1"><mxGeometry x="488" y="336" width="80" height="40" as="geometry"/></mxCell><mxCell id="QhRMwRrf64sF-K7vbuwG-30" value="..." style="text;html=1;strokeColor=none;fillColor=none;align=center;verticalAlign=middle;whiteSpace=wrap;rounded=0;" parent="1" vertex="1"><mxGeometry x="456.27" y="280" width="60" height="20" as="geometry"/></mxCell><mxCell id="QhRMwRrf64sF-K7vbuwG-31" value="" style="endArrow=classic;html=1;entryX=0;entryY=0.5;entryDx=0;entryDy=0;exitX=1;exitY=0.5;exitDx=0;exitDy=0;startArrow=classic;startFill=1;" parent="1" source="QhRMwRrf64sF-K7vbuwG-29" target="QhRMwRrf64sF-K7vbuwG-6" edge="1"><mxGeometry width="50" height="50" relative="1" as="geometry"><mxPoint x="684" y="480" as="sourcePoint"/><mxPoint x="734" y="430" as="targetPoint"/></mxGeometry></mxCell><mxCell id="QhRMwRrf64sF-K7vbuwG-32" value="Streamed data" style="text;html=1;strokeColor=none;fillColor=none;align=center;verticalAlign=middle;whiteSpace=wrap;rounded=0;" parent="1" vertex="1"><mxGeometry x="584" y="336" width="90" height="20" as="geometry"/></mxCell><mxCell id="QhRMwRrf64sF-K7vbuwG-33" value="Shared Dart Libs" style="rounded=1;whiteSpace=wrap;html=1;" parent="1" vertex="1"><mxGeometry x="569" y="800" width="130" height="40" as="geometry"/></mxCell><mxCell id="QhRMwRrf64sF-K7vbuwG-34" value="Shared Flutter Libs" style="rounded=1;whiteSpace=wrap;html=1;" parent="1" vertex="1"><mxGeometry x="569" y="850" width="130" height="40" as="geometry"/></mxCell><mxCell id="QhRMwRrf64sF-K7vbuwG-35" value="3rd Party Packages &amp;amp; Plugins" style="rounded=1;whiteSpace=wrap;html=1;" parent="1" vertex="1"><mxGeometry x="569" y="900" width="130" height="60" as="geometry"/></mxCell><mxCell id="QhRMwRrf64sF-K7vbuwG-36" value="" style="rounded=0;whiteSpace=wrap;html=1;" parent="1" vertex="1"><mxGeometry x="443.55" y="469" width="85.45" height="140" as="geometry"/></mxCell><mxCell id="QhRMwRrf64sF-K7vbuwG-37" value="Bloc" style="rounded=1;whiteSpace=wrap;html=1;" parent="1" vertex="1"><mxGeometry x="489" y="585" width="80" height="40" as="geometry"/></mxCell><mxCell id="QhRMwRrf64sF-K7vbuwG-38" value="..." style="text;html=1;strokeColor=none;fillColor=none;align=center;verticalAlign=middle;whiteSpace=wrap;rounded=0;" parent="1" vertex="1"><mxGeometry x="456.27" y="529" width="60" height="20" as="geometry"/></mxCell><mxCell id="QhRMwRrf64sF-K7vbuwG-39" value="lib_1" style="text;html=1;strokeColor=none;fillColor=none;align=center;verticalAlign=middle;whiteSpace=wrap;rounded=0;" parent="1" vertex="1"><mxGeometry x="456.27" y="479" width="60" height="20" as="geometry"/></mxCell><mxCell id="QhRMwRrf64sF-K7vbuwG-40" value="" style="endArrow=none;html=1;entryX=0.625;entryY=0;entryDx=0;entryDy=0;rounded=0;startArrow=none;startFill=1;endFill=0;entryPerimeter=0;" parent="1" source="QhRMwRrf64sF-K7vbuwG-51" target="QhRMwRrf64sF-K7vbuwG-25" edge="1"><mxGeometry width="50" height="50" relative="1" as="geometry"><mxPoint x="529" y="625" as="sourcePoint"/><mxPoint x="579" y="575" as="targetPoint"/><Array as="points"><mxPoint x="529" y="709"/></Array></mxGeometry></mxCell><mxCell id="QhRMwRrf64sF-K7vbuwG-41" value="Streamed data" style="text;html=1;strokeColor=none;fillColor=none;align=center;verticalAlign=middle;whiteSpace=wrap;rounded=0;" parent="1" vertex="1"><mxGeometry x="534" y="679" width="90" height="20" as="geometry"/></mxCell><mxCell id="QhRMwRrf64sF-K7vbuwG-42" value="&lt;b&gt;API&lt;/b&gt; calls" style="text;html=1;strokeColor=none;fillColor=none;align=center;verticalAlign=middle;whiteSpace=wrap;rounded=0;" parent="1" vertex="1"><mxGeometry x="448" y="679" width="90" height="20" as="geometry"/></mxCell><mxCell id="QhRMwRrf64sF-K7vbuwG-43" value="&lt;b&gt;Business&lt;/b&gt; calls" style="text;html=1;strokeColor=none;fillColor=none;align=center;verticalAlign=middle;whiteSpace=wrap;rounded=0;" parent="1" vertex="1"><mxGeometry x="579" y="360" width="100" height="20" as="geometry"/></mxCell><mxCell id="QhRMwRrf64sF-K7vbuwG-44" value="" style="endArrow=none;startArrow=classic;html=1;entryX=0.75;entryY=1;entryDx=0;entryDy=0;exitX=0.75;exitY=0;exitDx=0;exitDy=0;endFill=0;" parent="1" source="QhRMwRrf64sF-K7vbuwG-37" target="QhRMwRrf64sF-K7vbuwG-29" edge="1"><mxGeometry width="50" height="50" relative="1" as="geometry"><mxPoint x="784" y="570" as="sourcePoint"/><mxPoint x="834" y="520" as="targetPoint"/></mxGeometry></mxCell><mxCell id="QhRMwRrf64sF-K7vbuwG-45" value="Streamed data&lt;br&gt;" style="text;html=1;strokeColor=none;fillColor=none;align=left;verticalAlign=middle;whiteSpace=wrap;rounded=0;" parent="1" vertex="1"><mxGeometry x="553" y="419" width="90" height="50" as="geometry"/></mxCell><mxCell id="QhRMwRrf64sF-K7vbuwG-46" value="&lt;h1&gt;Calls&lt;/h1&gt;&lt;div&gt;- &lt;b&gt;Business&lt;/b&gt;: Functions that fulfills uses cases (ie. setFavorite, registerEvent,...)&lt;/div&gt;&lt;div&gt;- &lt;b&gt;Lib&lt;/b&gt;: Functions that provides technical functionality (ie. executeLowSecure, registerAnalyticsEvent, etc...)&lt;/div&gt;&lt;div&gt;- &lt;b&gt;Api&lt;/b&gt;: Public access to external dart libs and flutter packages and plugins.&lt;/div&gt;" style="text;html=1;strokeColor=none;fillColor=none;spacing=5;spacingTop=-20;whiteSpace=wrap;overflow=hidden;rounded=0;" parent="1" vertex="1"><mxGeometry x="1014" y="216" width="230" height="174" as="geometry"/></mxCell><mxCell id="QhRMwRrf64sF-K7vbuwG-47" value="&lt;b&gt;Lib&lt;/b&gt; calls" style="text;html=1;strokeColor=none;fillColor=none;align=right;verticalAlign=middle;whiteSpace=wrap;rounded=0;" parent="1" vertex="1"><mxGeometry x="456.27" y="419" width="90" height="50" as="geometry"/></mxCell><mxCell id="QhRMwRrf64sF-K7vbuwG-48" value="Return values" style="text;html=1;strokeColor=none;fillColor=none;align=center;verticalAlign=middle;whiteSpace=wrap;rounded=0;" parent="1" vertex="1"><mxGeometry x="534" y="699" width="90" height="20" as="geometry"/></mxCell><mxCell id="QhRMwRrf64sF-K7vbuwG-49" value="&lt;b&gt;* To improve: &lt;br&gt;&lt;/b&gt;Abstractions of dependencies&amp;nbsp;" style="text;html=1;strokeColor=none;fillColor=none;align=center;verticalAlign=middle;whiteSpace=wrap;rounded=0;" parent="1" vertex="1"><mxGeometry x="220" y="658" width="172" height="41" as="geometry"/></mxCell><mxCell id="QhRMwRrf64sF-K7vbuwG-50" value="" style="endArrow=none;dashed=1;html=1;startArrow=classic;startFill=1;" parent="1" edge="1"><mxGeometry width="50" height="50" relative="1" as="geometry"><mxPoint x="390" y="680" as="sourcePoint"/><mxPoint x="530" y="680" as="targetPoint"/></mxGeometry></mxCell><mxCell id="QhRMwRrf64sF-K7vbuwG-51" value="" style="shape=providedRequiredInterface;html=1;verticalLabelPosition=bottom;rotation=-90;" parent="1" vertex="1"><mxGeometry x="519" y="658" width="20" height="20" as="geometry"/></mxCell><mxCell id="QhRMwRrf64sF-K7vbuwG-52" value="" style="endArrow=none;html=1;entryX=1;entryY=0.5;entryDx=0;entryDy=0;rounded=0;startArrow=classic;startFill=1;endFill=0;entryPerimeter=0;" parent="1" target="QhRMwRrf64sF-K7vbuwG-51" edge="1"><mxGeometry width="50" height="50" relative="1" as="geometry"><mxPoint x="529" y="625" as="sourcePoint"/><mxPoint x="529" y="740" as="targetPoint"/><Array as="points"/></mxGeometry></mxCell></root></mxGraphModel></diagram></mxfile>